<svg width="193" height="81" viewBox="0 0 193 81" fill="none" xmlns="http://www.w3.org/2000/svg">
<path d="M8.24 51.864C6.448 51.864 4.784 51.64 3.248 51.192C1.712 50.808 0.944 50.136 0.944 49.176C0.944 48.536 1.296 47.96 2 47.448C2.768 46.936 3.664 46.552 4.688 46.296C5.776 45.976 6.736 45.816 7.568 45.816C10.32 45.816 12.976 46.232 15.536 47.064C18.096 47.832 20.72 48.632 23.408 49.464C26.16 50.232 29.104 50.616 32.24 50.616C36.08 50.616 39.76 49.816 43.28 48.216C46.8 46.616 49.936 44.44 52.688 41.688C55.44 38.936 57.584 35.832 59.12 32.376C60.72 28.856 61.52 25.208 61.52 21.432C61.52 17.4 60.816 13.88 59.408 10.872C58.064 7.864 55.888 5.528 52.88 3.864C49.936 2.2 46.096 1.368 41.36 1.368C37.776 1.368 34.288 2.104 30.896 3.576C27.504 4.984 24.464 6.84 21.776 9.144C19.088 11.384 16.944 13.816 15.344 16.44C13.744 19.064 12.944 21.528 12.944 23.832C12.944 25.048 13.424 26.296 14.384 27.576C15.344 28.856 17.008 29.496 19.376 29.496C21.616 29.496 24.048 28.92 26.672 27.768C29.296 26.552 31.792 24.952 34.16 22.968C36.592 20.92 38.672 18.648 40.4 16.152C42.128 13.592 43.184 10.968 43.568 8.28C43.696 7.448 43.888 7.064 44.144 7.128C44.4 7.192 44.528 7.576 44.528 8.28C44.528 11.032 43.824 13.752 42.416 16.44C41.008 19.064 39.152 21.432 36.848 23.544C34.544 25.656 31.984 27.352 29.168 28.632C26.416 29.912 23.632 30.552 20.816 30.552C18.32 30.552 16.336 30.136 14.864 29.304C13.392 28.472 12.336 27.448 11.696 26.232C11.056 24.952 10.736 23.704 10.736 22.488C10.736 20.056 11.472 17.56 12.944 15C14.48 12.376 16.592 9.976 19.28 7.8C22.032 5.624 25.232 3.864 28.88 2.52C32.592 1.176 36.592 0.503998 40.88 0.503998C44.848 0.503998 48.272 1.048 51.152 2.136C54.032 3.16 56.4 4.6 58.256 6.456C60.112 8.248 61.488 10.36 62.384 12.792C63.344 15.16 63.824 17.688 63.824 20.376C63.824 24.856 62.96 29.016 61.232 32.856C59.568 36.632 57.264 39.928 54.32 42.744C51.376 45.56 48.016 47.768 44.24 49.368C40.464 50.904 36.528 51.672 32.432 51.672C29.424 51.672 26.608 51.32 23.984 50.616C21.36 49.912 18.8 49.24 16.304 48.6C13.872 47.896 11.28 47.544 8.528 47.544C7.952 47.544 7.12 47.576 6.032 47.64C5.008 47.704 4.08 47.864 3.248 48.12C2.416 48.312 2 48.664 2 49.176C2 49.624 2.384 49.976 3.152 50.232C3.92 50.488 4.816 50.648 5.84 50.712C6.864 50.776 7.696 50.808 8.336 50.808C11.28 50.808 14.096 50.264 16.784 49.176C19.472 48.024 22.064 46.456 24.56 44.472C27.056 42.488 29.424 40.248 31.664 37.752C33.968 35.192 36.176 32.504 38.288 29.688C40.976 26.04 43.856 22.584 46.928 19.32C50 16.056 53.136 13.176 56.336 10.68C59.536 8.12 62.672 6.136 65.744 4.728C68.816 3.256 71.696 2.52 74.384 2.52C75.216 2.52 75.536 2.68 75.344 3C75.152 3.256 74.8 3.384 74.288 3.384C72.112 3.384 69.776 4.12 67.28 5.592C64.784 7.064 62.224 9.048 59.6 11.544C57.04 14.04 54.576 16.792 52.208 19.8C49.84 22.808 47.696 25.848 45.776 28.92C44.176 31.48 42.192 34.104 39.824 36.792C37.456 39.48 34.704 41.976 31.568 44.28C28.432 46.52 24.912 48.344 21.008 49.752C17.104 51.16 12.848 51.864 8.24 51.864ZM84.3268 26.52C87.5268 26.52 89.1268 28.056 89.1268 31.128C89.1268 33.496 88.5828 35.928 87.4948 38.424C86.4068 40.856 84.9348 43.096 83.0788 45.144C81.2228 47.128 79.2068 48.76 77.0308 50.04C74.8548 51.256 72.6468 51.864 70.4068 51.864C68.6788 51.864 67.2387 51.448 66.0867 50.616C64.8707 49.72 64.2627 48.28 64.2627 46.296C64.2627 44.44 64.8067 42.392 65.8947 40.152C66.9827 37.848 68.4548 35.672 70.3108 33.624C72.2308 31.576 74.3748 29.88 76.7428 28.536C79.1748 27.192 81.7028 26.52 84.3268 26.52ZM85.3828 27.864C84.2948 27.864 83.0148 28.344 81.5428 29.304C80.0708 30.264 78.5668 31.512 77.0308 33.048C75.4948 34.584 74.0548 36.248 72.7108 38.04C71.4308 39.768 70.3748 41.464 69.5428 43.128C68.7748 44.792 68.3908 46.2 68.3908 47.352C68.3908 48.632 68.7428 49.528 69.4468 50.04C70.1508 50.488 70.9508 50.712 71.8468 50.712C73.3188 50.712 74.9828 50.104 76.8388 48.888C78.6948 47.608 80.4868 46.008 82.2148 44.088C83.9428 42.168 85.3508 40.152 86.4388 38.04C87.5908 35.864 88.1668 33.88 88.1668 32.088C88.1668 30.424 87.8788 29.304 87.3028 28.728C86.7268 28.152 86.0868 27.864 85.3828 27.864ZM87.1108 37.752C87.4308 37.752 87.5588 37.88 87.4948 38.136C87.4948 38.328 87.3348 38.424 87.0148 38.424C86.7588 38.424 86.3748 38.776 85.8628 39.48C85.4148 40.12 84.9988 40.792 84.6148 41.496C84.2308 42.2 84.0388 42.584 84.0388 42.648C84.0388 44.12 84.5828 44.856 85.6708 44.856C86.6948 44.856 87.8468 44.376 89.1268 43.416C90.4708 42.456 91.7508 41.368 92.9668 40.152C94.2468 38.872 95.2708 37.752 96.0388 36.792L96.8068 37.464C95.9748 38.424 94.9188 39.576 93.6388 40.92C92.3588 42.2 91.0148 43.352 89.6068 44.376C88.1988 45.336 86.8868 45.816 85.6708 45.816C84.6468 45.816 83.9428 45.592 83.5588 45.144C83.1748 44.696 82.9828 43.896 82.9828 42.744C82.9828 41.208 83.4948 39.992 84.5188 39.096C85.6068 38.2 86.4708 37.752 87.1108 37.752ZM113.986 26.52C115.906 26.52 117.218 26.808 117.922 27.384C118.69 27.96 119.074 28.728 119.074 29.688C119.074 30.584 118.85 31.512 118.402 32.472C117.954 33.368 117.474 34.2 116.962 34.968C116.514 35.736 116.226 36.248 116.098 36.504C115.714 37.144 115.266 37.56 114.754 37.752C114.242 37.88 114.402 37.368 115.234 36.216C116.322 34.808 117.122 33.464 117.634 32.184C118.146 30.84 118.178 29.752 117.73 28.92C117.346 28.024 116.258 27.576 114.466 27.576C113.25 27.576 111.81 28.12 110.146 29.208C108.546 30.232 106.882 31.608 105.154 33.336C103.426 35 101.794 36.824 100.258 38.808C98.7855 40.728 97.5695 42.584 96.6095 44.376C95.7135 46.104 95.2655 47.576 95.2655 48.792C95.2655 49.688 95.4575 50.232 95.8415 50.424C96.2255 50.616 96.7055 50.712 97.2815 50.712C98.7535 50.712 100.45 50.072 102.37 48.792C104.29 47.448 106.274 45.752 108.322 43.704C110.37 41.656 112.322 39.544 114.178 37.368C116.098 35.128 117.762 33.112 119.17 31.32C120.578 29.464 121.569 28.12 122.146 27.288C122.85 27.48 123.554 27.608 124.258 27.672C125.026 27.672 126.018 27.576 127.234 27.384C123.01 32.248 119.074 37.208 115.426 42.264C111.778 47.32 108.29 52.152 104.962 56.76C101.634 61.368 98.3695 65.464 95.1695 69.048C91.9055 72.696 88.6095 75.576 85.2815 77.688C81.9535 79.8 78.4655 80.856 74.8175 80.856C73.6015 80.856 72.6415 80.6 71.9375 80.088C71.1695 79.576 70.7855 78.904 70.7855 78.072C70.7855 76.664 71.5215 75.192 72.9935 73.656C74.4655 72.184 76.3855 70.744 78.7535 69.336C81.1215 67.928 83.6815 66.552 86.4335 65.208C89.1215 63.928 91.7455 62.776 94.3055 61.752C96.8015 60.728 98.9135 59.864 100.642 59.16C103.65 57.944 106.658 56.408 109.666 54.552C112.674 52.696 115.49 50.68 118.114 48.504C120.802 46.328 123.17 44.216 125.218 42.168C127.33 40.12 128.962 38.296 130.114 36.696C130.114 36.696 130.21 36.824 130.402 37.08C130.658 37.336 130.786 37.464 130.786 37.464C129.186 39.576 126.978 42.008 124.161 44.76C121.345 47.448 117.986 50.136 114.082 52.824C110.178 55.512 105.794 57.88 100.93 59.928C99.2655 60.632 97.2175 61.496 94.7855 62.52C92.3535 63.544 89.8255 64.664 87.2015 65.88C84.5775 67.16 82.1135 68.472 79.8095 69.816C77.5055 71.224 75.6495 72.6 74.2415 73.944C72.7695 75.352 72.0335 76.696 72.0335 77.976C72.0335 78.424 72.2575 78.872 72.7055 79.32C73.1535 79.768 73.8575 79.992 74.8175 79.992C76.6095 79.992 78.5935 79.224 80.7695 77.688C82.9455 76.152 85.2495 74.136 87.6815 71.64C90.0495 69.144 92.4495 66.424 94.8815 63.48C97.2495 60.6 99.5215 57.72 101.698 54.84C103.874 51.96 105.826 49.368 107.554 47.064C109.346 44.76 110.786 43.032 111.874 41.88C111.874 41.88 111.81 41.848 111.682 41.784C111.618 41.72 111.586 41.688 111.586 41.688C111.33 42.008 110.69 42.712 109.666 43.8C108.706 44.824 107.49 45.976 106.018 47.256C104.546 48.472 102.978 49.56 101.314 50.52C99.6495 51.416 98.0175 51.864 96.4175 51.864C94.7535 51.864 93.6335 51.384 93.0575 50.424C92.4175 49.464 92.0975 48.376 92.0975 47.16C92.0975 45.112 92.6735 42.904 93.8255 40.536C94.9135 38.168 96.4495 35.928 98.4335 33.816C100.482 31.704 102.818 29.976 105.442 28.632C108.13 27.224 110.978 26.52 113.986 26.52ZM147.829 26.52C149.749 26.52 151.061 26.808 151.765 27.384C152.533 27.96 152.917 28.728 152.917 29.688C152.917 30.584 152.693 31.512 152.245 32.472C151.797 33.368 151.317 34.2 150.805 34.968C150.357 35.736 150.069 36.248 149.941 36.504C149.557 37.144 149.109 37.56 148.597 37.752C148.085 37.88 148.245 37.368 149.077 36.216C150.165 34.808 150.965 33.464 151.477 32.184C151.989 30.84 152.021 29.752 151.573 28.92C151.189 28.024 150.101 27.576 148.309 27.576C147.093 27.576 145.653 28.12 143.989 29.208C142.389 30.232 140.725 31.608 138.997 33.336C137.269 35 135.637 36.824 134.101 38.808C132.629 40.728 131.413 42.584 130.453 44.376C129.557 46.104 129.109 47.576 129.109 48.792C129.109 49.688 129.301 50.232 129.685 50.424C130.069 50.616 130.549 50.712 131.125 50.712C132.597 50.712 134.293 50.072 136.213 48.792C138.133 47.448 140.117 45.752 142.165 43.704C144.213 41.656 146.165 39.544 148.021 37.368C149.941 35.128 151.605 33.112 153.013 31.32C154.421 29.464 155.413 28.12 155.989 27.288C156.693 27.48 157.397 27.608 158.101 27.672C158.869 27.672 159.861 27.576 161.077 27.384C156.853 32.248 152.917 37.208 149.269 42.264C145.621 47.32 142.133 52.152 138.805 56.76C135.477 61.368 132.213 65.464 129.013 69.048C125.749 72.696 122.453 75.576 119.125 77.688C115.797 79.8 112.309 80.856 108.661 80.856C107.445 80.856 106.485 80.6 105.781 80.088C105.013 79.576 104.629 78.904 104.629 78.072C104.629 76.664 105.365 75.192 106.837 73.656C108.309 72.184 110.229 70.744 112.597 69.336C114.965 67.928 117.525 66.552 120.277 65.208C122.965 63.928 125.589 62.776 128.149 61.752C130.645 60.728 132.757 59.864 134.485 59.16C137.493 57.944 140.501 56.408 143.509 54.552C146.517 52.696 149.333 50.68 151.957 48.504C154.645 46.328 157.013 44.216 159.061 42.168C161.173 40.12 162.805 38.296 163.957 36.696C163.957 36.696 164.053 36.824 164.245 37.08C164.501 37.336 164.629 37.464 164.629 37.464C163.029 39.576 160.821 42.008 158.005 44.76C155.189 47.448 151.829 50.136 147.925 52.824C144.021 55.512 139.637 57.88 134.773 59.928C133.109 60.632 131.061 61.496 128.629 62.52C126.197 63.544 123.669 64.664 121.045 65.88C118.421 67.16 115.957 68.472 113.653 69.816C111.349 71.224 109.493 72.6 108.085 73.944C106.613 75.352 105.877 76.696 105.877 77.976C105.877 78.424 106.101 78.872 106.549 79.32C106.997 79.768 107.701 79.992 108.661 79.992C110.453 79.992 112.437 79.224 114.613 77.688C116.789 76.152 119.093 74.136 121.525 71.64C123.893 69.144 126.293 66.424 128.725 63.48C131.093 60.6 133.365 57.72 135.541 54.84C137.717 51.96 139.669 49.368 141.397 47.064C143.189 44.76 144.629 43.032 145.717 41.88C145.717 41.88 145.653 41.848 145.525 41.784C145.461 41.72 145.429 41.688 145.429 41.688C145.173 42.008 144.533 42.712 143.509 43.8C142.549 44.824 141.333 45.976 139.861 47.256C138.389 48.472 136.821 49.56 135.157 50.52C133.493 51.416 131.861 51.864 130.261 51.864C128.597 51.864 127.477 51.384 126.901 50.424C126.261 49.464 125.941 48.376 125.941 47.16C125.941 45.112 126.517 42.904 127.669 40.536C128.757 38.168 130.293 35.928 132.277 33.816C134.325 31.704 136.661 29.976 139.285 28.632C141.973 27.224 144.821 26.52 147.829 26.52ZM180.233 26.52C183.433 26.52 185.033 28.056 185.033 31.128C185.033 33.496 184.489 35.928 183.401 38.424C182.313 40.856 180.841 43.096 178.985 45.144C177.129 47.128 175.113 48.76 172.937 50.04C170.761 51.256 168.553 51.864 166.313 51.864C164.585 51.864 163.145 51.448 161.993 50.616C160.777 49.72 160.169 48.28 160.169 46.296C160.169 44.44 160.713 42.392 161.801 40.152C162.889 37.848 164.361 35.672 166.217 33.624C168.137 31.576 170.281 29.88 172.649 28.536C175.081 27.192 177.609 26.52 180.233 26.52ZM181.289 27.864C180.201 27.864 178.921 28.344 177.449 29.304C175.977 30.264 174.473 31.512 172.937 33.048C171.401 34.584 169.961 36.248 168.617 38.04C167.337 39.768 166.281 41.464 165.449 43.128C164.681 44.792 164.297 46.2 164.297 47.352C164.297 48.632 164.649 49.528 165.353 50.04C166.057 50.488 166.857 50.712 167.753 50.712C169.225 50.712 170.889 50.104 172.745 48.888C174.601 47.608 176.393 46.008 178.121 44.088C179.849 42.168 181.257 40.152 182.345 38.04C183.497 35.864 184.073 33.88 184.073 32.088C184.073 30.424 183.785 29.304 183.209 28.728C182.633 28.152 181.993 27.864 181.289 27.864ZM183.017 37.752C183.337 37.752 183.465 37.88 183.401 38.136C183.401 38.328 183.241 38.424 182.921 38.424C182.665 38.424 182.281 38.776 181.769 39.48C181.321 40.12 180.905 40.792 180.521 41.496C180.137 42.2 179.945 42.584 179.945 42.648C179.945 44.12 180.489 44.856 181.577 44.856C182.601 44.856 183.753 44.376 185.033 43.416C186.377 42.456 187.657 41.368 188.873 40.152C190.153 38.872 191.177 37.752 191.945 36.792L192.713 37.464C191.881 38.424 190.825 39.576 189.545 40.92C188.265 42.2 186.921 43.352 185.513 44.376C184.105 45.336 182.793 45.816 181.577 45.816C180.553 45.816 179.849 45.592 179.465 45.144C179.081 44.696 178.889 43.896 178.889 42.744C178.889 41.208 179.401 39.992 180.425 39.096C181.513 38.2 182.377 37.752 183.017 37.752Z" fill="#F4A684"/>
</svg>
