<svg width="80" height="50" viewBox="0 0 80 50" fill="none" xmlns="http://www.w3.org/2000/svg">
<g filter="url(#filter0_ii_214_84)">
<path d="M33.2072 11.7947C36.7951 7.66679 43.2049 7.6668 46.7928 11.7947L67.0457 35.096C72.1091 40.9215 67.9713 50.0001 60.253 50.0001H19.747C12.0286 50.0001 7.89093 40.9215 12.9543 35.096L33.2072 11.7947Z" fill="#E0AC5C"/>
</g>
<g filter="url(#filter1_di_214_84)">
<path d="M43.0143 23.7214C41.2305 25.0696 38.7685 25.0696 36.9847 23.7214L28.0769 16.9889C24.2511 14.0973 26.296 8 31.0917 8L48.9073 8C53.703 8 55.748 14.0973 51.9221 16.9889L43.0143 23.7214Z" fill="#1B1B1B"/>
</g>
<ellipse cx="39.4995" cy="12" rx="6" ry="2" fill="white"/>
<mask id="path-4-inside-1_214_84" fill="white">
<path d="M39.9995 27C39.9995 27.7879 39.8443 28.5681 39.5428 29.2961C39.2413 30.0241 38.7993 30.6855 38.2422 31.2426C37.685 31.7998 37.0236 32.2417 36.2956 32.5433C35.5677 32.8448 34.7874 33 33.9995 33C33.2116 33 32.4314 32.8448 31.7034 32.5433C30.9755 32.2417 30.314 31.7998 29.7569 31.2426C29.1997 30.6855 28.7578 30.0241 28.4562 29.2961C28.1547 28.5681 27.9995 27.7879 27.9995 27H29.0915C29.0915 27.6445 29.2185 28.2827 29.4651 28.8782C29.7118 29.4737 30.0733 30.0147 30.529 30.4705C30.9848 30.9262 31.5258 31.2878 32.1213 31.5344C32.7168 31.7811 33.355 31.908 33.9995 31.908C34.644 31.908 35.2823 31.7811 35.8777 31.5344C36.4732 31.2878 37.0142 30.9262 37.47 30.4705C37.9257 30.0147 38.2873 29.4737 38.5339 28.8782C38.7806 28.2827 38.9075 27.6445 38.9075 27H39.9995Z"/>
</mask>
<path d="M39.9995 27C39.9995 27.7879 39.8443 28.5681 39.5428 29.2961C39.2413 30.0241 38.7993 30.6855 38.2422 31.2426C37.685 31.7998 37.0236 32.2417 36.2956 32.5433C35.5677 32.8448 34.7874 33 33.9995 33C33.2116 33 32.4314 32.8448 31.7034 32.5433C30.9755 32.2417 30.314 31.7998 29.7569 31.2426C29.1997 30.6855 28.7578 30.0241 28.4562 29.2961C28.1547 28.5681 27.9995 27.7879 27.9995 27H29.0915C29.0915 27.6445 29.2185 28.2827 29.4651 28.8782C29.7118 29.4737 30.0733 30.0147 30.529 30.4705C30.9848 30.9262 31.5258 31.2878 32.1213 31.5344C32.7168 31.7811 33.355 31.908 33.9995 31.908C34.644 31.908 35.2823 31.7811 35.8777 31.5344C36.4732 31.2878 37.0142 30.9262 37.47 30.4705C37.9257 30.0147 38.2873 29.4737 38.5339 28.8782C38.7806 28.2827 38.9075 27.6445 38.9075 27H39.9995Z" fill="#D9D9D9" stroke="#1B1B1B" stroke-width="2" mask="url(#path-4-inside-1_214_84)"/>
<mask id="path-5-inside-2_214_84" fill="white">
<path d="M51.9995 27C51.9995 27.7879 51.8443 28.5681 51.5428 29.2961C51.2413 30.0241 50.7993 30.6855 50.2422 31.2426C49.685 31.7998 49.0236 32.2417 48.2956 32.5433C47.5677 32.8448 46.7874 33 45.9995 33C45.2116 33 44.4314 32.8448 43.7034 32.5433C42.9755 32.2417 42.314 31.7998 41.7569 31.2426C41.1997 30.6855 40.7578 30.0241 40.4562 29.2961C40.1547 28.5681 39.9995 27.7879 39.9995 27H41.0915C41.0915 27.6445 41.2185 28.2827 41.4651 28.8782C41.7118 29.4737 42.0733 30.0147 42.529 30.4705C42.9848 30.9262 43.5258 31.2878 44.1213 31.5344C44.7168 31.7811 45.355 31.908 45.9995 31.908C46.644 31.908 47.2823 31.7811 47.8777 31.5344C48.4732 31.2878 49.0142 30.9262 49.47 30.4705C49.9257 30.0147 50.2873 29.4737 50.5339 28.8782C50.7806 28.2827 50.9075 27.6445 50.9075 27H51.9995Z"/>
</mask>
<path d="M51.9995 27C51.9995 27.7879 51.8443 28.5681 51.5428 29.2961C51.2413 30.0241 50.7993 30.6855 50.2422 31.2426C49.685 31.7998 49.0236 32.2417 48.2956 32.5433C47.5677 32.8448 46.7874 33 45.9995 33C45.2116 33 44.4314 32.8448 43.7034 32.5433C42.9755 32.2417 42.314 31.7998 41.7569 31.2426C41.1997 30.6855 40.7578 30.0241 40.4562 29.2961C40.1547 28.5681 39.9995 27.7879 39.9995 27H41.0915C41.0915 27.6445 41.2185 28.2827 41.4651 28.8782C41.7118 29.4737 42.0733 30.0147 42.529 30.4705C42.9848 30.9262 43.5258 31.2878 44.1213 31.5344C44.7168 31.7811 45.355 31.908 45.9995 31.908C46.644 31.908 47.2823 31.7811 47.8777 31.5344C48.4732 31.2878 49.0142 30.9262 49.47 30.4705C49.9257 30.0147 50.2873 29.4737 50.5339 28.8782C50.7806 28.2827 50.9075 27.6445 50.9075 27H51.9995Z" fill="#D9D9D9" stroke="#1B1B1B" stroke-width="2" mask="url(#path-5-inside-2_214_84)"/>
<path d="M38.9995 18H41.0995V26.95C41.0995 27.5299 40.6294 28 40.0495 28C39.4696 28 38.9995 27.5299 38.9995 26.95V18Z" fill="#1B1B1B"/>
<defs>
<filter id="filter0_ii_214_84" x="9.72949" y="4.69922" width="59.541" height="49.3008" filterUnits="userSpaceOnUse" color-interpolation-filters="sRGB">
<feFlood flood-opacity="0" result="BackgroundImageFix"/>
<feBlend mode="normal" in="SourceGraphic" in2="BackgroundImageFix" result="shape"/>
<feColorMatrix in="SourceAlpha" type="matrix" values="0 0 0 0 0 0 0 0 0 0 0 0 0 0 0 0 0 0 127 0" result="hardAlpha"/>
<feOffset dx="-1" dy="-4"/>
<feGaussianBlur stdDeviation="2"/>
<feComposite in2="hardAlpha" operator="arithmetic" k2="-1" k3="1"/>
<feColorMatrix type="matrix" values="0 0 0 0 0 0 0 0 0 0 0 0 0 0 0 0 0 0 0.25 0"/>
<feBlend mode="normal" in2="shape" result="effect1_innerShadow_214_84"/>
<feColorMatrix in="SourceAlpha" type="matrix" values="0 0 0 0 0 0 0 0 0 0 0 0 0 0 0 0 0 0 127 0" result="hardAlpha"/>
<feOffset dy="4"/>
<feGaussianBlur stdDeviation="2"/>
<feComposite in2="hardAlpha" operator="arithmetic" k2="-1" k3="1"/>
<feColorMatrix type="matrix" values="0 0 0 0 0 0 0 0 0 0 0 0 0 0 0 0 0 0 0.25 0"/>
<feBlend mode="normal" in2="effect1_innerShadow_214_84" result="effect2_innerShadow_214_84"/>
</filter>
<filter id="filter1_di_214_84" x="16.382" y="0.3" width="47.235" height="36.1324" filterUnits="userSpaceOnUse" color-interpolation-filters="sRGB">
<feFlood flood-opacity="0" result="BackgroundImageFix"/>
<feColorMatrix in="SourceAlpha" type="matrix" values="0 0 0 0 0 0 0 0 0 0 0 0 0 0 0 0 0 0 127 0" result="hardAlpha"/>
<feOffset dy="2"/>
<feGaussianBlur stdDeviation="4.85"/>
<feComposite in2="hardAlpha" operator="out"/>
<feColorMatrix type="matrix" values="0 0 0 0 0 0 0 0 0 0 0 0 0 0 0 0 0 0 0.21 0"/>
<feBlend mode="normal" in2="BackgroundImageFix" result="effect1_dropShadow_214_84"/>
<feBlend mode="normal" in="SourceGraphic" in2="effect1_dropShadow_214_84" result="shape"/>
<feColorMatrix in="SourceAlpha" type="matrix" values="0 0 0 0 0 0 0 0 0 0 0 0 0 0 0 0 0 0 127 0" result="hardAlpha"/>
<feOffset dy="4"/>
<feGaussianBlur stdDeviation="2"/>
<feComposite in2="hardAlpha" operator="arithmetic" k2="-1" k3="1"/>
<feColorMatrix type="matrix" values="0 0 0 0 0 0 0 0 0 0 0 0 0 0 0 0 0 0 0.25 0"/>
<feBlend mode="normal" in2="shape" result="effect2_innerShadow_214_84"/>
</filter>
</defs>
</svg>
